<?xml version="1.0" standalone="no"?>
<!DOCTYPE svg PUBLIC "-//W3C//DTD SVG 20010904//EN"
 "http://www.w3.org/TR/2001/REC-SVG-20010904/DTD/svg10.dtd">
<svg version="1.0" xmlns="http://www.w3.org/2000/svg"
 width="80.000000pt" height="80.000000pt" viewBox="0 0 80.000000 80.000000"
 preserveAspectRatio="xMidYMid meet">

<g transform="translate(0.000000,80.000000) scale(0.100000,-0.100000)"
fill="#000000" stroke="none">
<path d="M131 615 c-30 -14 -51 -28 -48 -31 3 -3 31 8 63 25 71 36 60 41 -15
6z"/>
<path d="M290 612 c0 -5 4 -22 9 -38 5 -16 12 -50 16 -76 3 -27 11 -48 16 -48
6 0 7 14 3 36 l-7 36 41 -43 c38 -40 42 -42 42 -21 0 29 -46 91 -77 103 -13 5
-23 17 -23 28 0 11 -4 23 -10 26 -5 3 -10 2 -10 -3z"/>
<path d="M197 573 c-4 -3 -7 -11 -7 -17 0 -6 5 -5 12 2 6 6 9 14 7 17 -3 3 -9
2 -12 -2z"/>
<path d="M61 540 c-1 -8 6 -48 16 -88 15 -63 15 -75 3 -82 -23 -14 44 -78 89
-86 20 -4 41 -10 47 -15 13 -11 88 -38 131 -49 23 -6 39 -3 61 10 42 26 45 36
18 58 -18 13 -22 22 -14 30 12 12 1 35 -13 27 -5 -4 -9 -14 -9 -25 0 -10 -7
-21 -16 -24 -8 -3 -12 -11 -9 -16 4 -6 2 -17 -5 -25 -9 -11 -28 -8 -113 21
-56 19 -109 37 -117 40 -11 4 -6 11 18 26 31 19 38 36 10 26 -22 -9 -32 -4
-36 17 -1 11 -7 24 -12 29 -6 6 -10 23 -10 38 0 15 -4 28 -8 28 -5 0 -13 17
-19 38 -6 20 -11 30 -12 22z"/>
<path d="M604 522 c4 -7 16 -12 27 -12 10 0 19 -4 19 -10 0 -14 -16 -13 -40 2
-15 10 -22 10 -32 0 -9 -9 -7 -12 13 -13 20 0 21 -1 5 -8 -17 -7 -17 -8 -2
-23 25 -25 20 -44 -11 -43 -22 0 -28 -4 -26 -19 1 -11 -6 -26 -15 -34 -16 -12
-16 -13 1 -5 9 5 33 7 53 5 30 -4 37 -10 51 -43 15 -38 17 -39 64 -39 l48 0
-35 83 c-20 45 -43 99 -51 120 -8 20 -21 37 -28 37 -7 0 -21 3 -31 7 -12 4
-15 3 -10 -5z"/>
<path d="M468 488 c-8 -7 -18 -21 -21 -30 -5 -15 0 -18 33 -18 51 0 64 20 13
21 l-38 1 48 10 c26 6 47 14 47 19 0 14 -64 11 -82 -3z"/>
<path d="M332 411 c-8 -4 -14 -11 -14 -14 0 -34 -18 -52 -60 -61 -3 0 -10 -4
-14 -8 -4 -4 -12 -4 -18 2 -7 5 -17 5 -26 -2 -12 -8 -12 -9 3 -4 9 3 17 2 17
-3 0 -5 12 -12 26 -15 20 -5 38 1 73 23 25 17 42 31 37 31 -4 0 2 9 15 20 21
17 22 21 9 30 -18 12 -31 12 -48 1z"/>
</g>
</svg>
